<svg xmlns="http://www.w3.org/2000/svg" viewBox="0 0 47.3 37.56"><defs><style>.cls-1{fill:#1d1d1b;}</style></defs><g id="Ebene_2" data-name="Ebene 2"><g id="Ebene_1-2" data-name="Ebene 1"><rect x="24.28" y="13.03" width="4.49" height="4.49"/><rect x="28.77" y="13.03" width="4.49" height="4.49"/><rect x="33.26" y="13.03" width="4.49" height="4.49"/><rect x="37.74" y="13.03" width="4.49" height="4.49"/><rect x="24.28" y="22.75" width="4.49" height="4.49"/><rect x="28.77" y="22.75" width="4.49" height="4.49"/><rect x="33.26" y="22.75" width="4.49" height="4.49"/><rect x="37.74" y="22.75" width="4.49" height="4.49"/><rect x="42.23" y="22.75" width="4.49" height="4.49"/><rect x="24.28" y="26.5" width="4.49" height="4.49"/><rect x="24.28" y="30.99" width="4.49" height="4.49"/><rect x="24.28" y="33.07" width="4.49" height="4.49"/><rect x="33.26" y="26.5" width="4.49" height="4.49"/><rect x="33.26" y="30.99" width="4.49" height="4.49"/><rect x="33.26" y="33.07" width="4.49" height="4.49"/><rect x="42.23" y="33.07" width="4.49" height="4.49"/><rect x="42.23" y="13.03" width="4.49" height="4.49"/><path class="cls-1" d="M0,.22H4.32v.84H.86v2.7H4.32v.85H.86V8.84H0Z"/><path class="cls-1" d="M9.92,0A4.48,4.48,0,0,1,13.2,1.31a4.34,4.34,0,0,1,1.32,3.21A4.34,4.34,0,0,1,13.2,7.73,4.34,4.34,0,0,1,10,9.05,4.37,4.37,0,0,1,6.76,7.74,4.3,4.3,0,0,1,5.44,4.56,4.62,4.62,0,0,1,6,2.26,4.44,4.44,0,0,1,9.92,0Zm0,.84a3.46,3.46,0,0,0-1.81.5A3.59,3.59,0,0,0,6.81,2.68a3.73,3.73,0,0,0-.48,1.88A3.6,3.6,0,0,0,10,8.21a3.74,3.74,0,0,0,1.86-.48A3.54,3.54,0,0,0,13.15,6.4a3.76,3.76,0,0,0,.48-1.88,3.68,3.68,0,0,0-.48-1.86A3.57,3.57,0,0,0,11.8,1.34,3.56,3.56,0,0,0,10,.84Z"/><path class="cls-1" d="M16.29.22H18A11.48,11.48,0,0,1,20,.33a2.26,2.26,0,0,1,1.25.76,2.14,2.14,0,0,1,.48,1.42,2.24,2.24,0,0,1-.34,1.24,2.14,2.14,0,0,1-.94.81,4.34,4.34,0,0,1-1.7.27l3.1,4H20.74l-3.1-4h-.48v4h-.87Zm.87.84V4h1.48a3.72,3.72,0,0,0,1.28-.16,1.34,1.34,0,0,0,.64-.53,1.41,1.41,0,0,0,.23-.8,1.38,1.38,0,0,0-.23-.79,1.28,1.28,0,0,0-.62-.51,3.73,3.73,0,0,0-1.26-.15Z"/><path class="cls-1" d="M23.14,8.84,24.37.22h.14L28,7.29,31.49.22h.13l1.25,8.62H32l-.85-6.17L28.12,8.84H27.9L24.82,2.62,24,8.84Z"/><path class="cls-1" d="M38.08.22l4,8.62h-.93L39.81,6H36.1L34.76,8.84h-1L37.87.22ZM38,2.05,36.49,5.17h2.95Z"/><path class="cls-1" d="M42.58,1.06V.22H47.3v.84H45.38V8.84H44.5V1.06Z"/><path class="cls-1" d="M0,13.25H4.32v.84H.86v2.7H4.32v.84H.86v4.23H0Z"/><path class="cls-1" d="M5.87,13.25H7.58a10.48,10.48,0,0,1,1.95.11,2.23,2.23,0,0,1,1.25.76,2.14,2.14,0,0,1,.48,1.42,2.24,2.24,0,0,1-.34,1.24,2.06,2.06,0,0,1-.94.8,4.15,4.15,0,0,1-1.7.28l3.1,4H10.31l-3.1-4H6.73v4H5.87Zm.86.84V17H8.21a3.72,3.72,0,0,0,1.28-.16,1.34,1.34,0,0,0,.64-.53,1.42,1.42,0,0,0,.24-.8,1.36,1.36,0,0,0-.24-.79,1.28,1.28,0,0,0-.62-.51,3.73,3.73,0,0,0-1.26-.15Z"/><path class="cls-1" d="M13.11,13.25h4.94v.84H14v2.7h4v.84H14V21h4v.84h-4.9Z"/><path class="cls-1" d="M19.41,13.25h.86v8.61h-.86Z"/></g></g></svg>