<?xml version="1.0" encoding="utf-8"?>
<!-- Generator: Adobe Illustrator 25.4.1, SVG Export Plug-In . SVG Version: 6.00 Build 0)  -->
<svg version="1.1" id="Ebene_1" xmlns="http://www.w3.org/2000/svg" xmlns:xlink="http://www.w3.org/1999/xlink" x="0px" y="0px"
	 viewBox="0 0 512 504" style="enable-background:new 0 0 512 504;" xml:space="preserve">
<style type="text/css">
	.st0{fill:#6200FF;}
</style>
<g id="Ebene_2_00000096056043621879450200000009354354001980318371_">
	<g id="Ebene_1-2">
		<path class="st0" d="M0,459.1c2.1-5.7,6-9.7,10.8-13.4c22.2-17.3,44.3-34.8,66.3-52.3c3.5-2.8,7-4.3,11.5-3.1
			c1.1,0.3,2.8-0.5,3.8-1.3c3.3-2.5,6.2-5.6,9.7-7.9c2.2-1.5,5.3-3,7.7-2.6c4.3,0.8,6.8-1.3,8.8-4.1c6.7-9.7,13.1-19.6,19.7-29.5
			c-2.4-3.8-4.9-4.1-8.6-1.7c-14.1,8.9-24.8,6.2-33.6-8c-5-8.1-10-16.2-15-24.3c-7.6-12.5-5-24,7.5-31.5c3.6-2.1,5-4.1,4.6-8.5
			c-1-9.3,2.8-17,10.3-22.5c3.6-2.6,7.5-5,11.4-7.2c4-2.2,7.9-1.1,10.1,2.4s1.4,7.5-2.2,10.1c-2.8,2.1-6,3.7-8.8,5.6
			c-6.3,4.2-7.8,9.9-3.8,16.4c10.4,17.2,21.1,34.3,31.7,51.5c1.1,2,2.6,3.8,4.3,5.2c14.3-26.3,36.5-40.1,63.6-48.6l-37.2-60.3
			c-1.6,0.9-2.9,1.5-4.2,2.3c-4.3,2.6-8.5,5.2-12.8,7.9c-5.9,3.6-10.7,3.3-13.1-0.9c-2.5-4.4-0.8-8.1,5.4-12s12.3-7.4,18.3-11.3
			c2.4-1.5,4.5-3.4,6.3-5.5c37.4-46.2,74.9-92.5,112.2-138.8c2.4-2.9,2.9-5.1,0.5-8.2c-3.7-4.9-5.7-10.3-5-16.8
			c1-9.3,21.9-22.3,30.8-18.9c5.3,2.1,8.9,5.6,11.8,10.2c27.1,44.1,54.3,88.2,81.5,132.3c16.8,27.2,33.6,54.4,50.4,81.6
			c7.7,12.5,5.6,21.2-7,28.8c-3.5,2.1-7.1,4.5-11.1,5.6c-8.2,2.2-15.1-1.2-20.1-10.2c-2.6-4.8-5.4-5.6-10.6-4.5
			c-45.6,10.2-91.3,20-137,30c-1.3,0.3-2.6,0.7-4.3,1.1c5.1,7,8,14.4,5.6,23.1c9,3.5,16,9.2,17,18.8c0.8,7.2,3,11.5,9.5,15.4
			c8.9,5.4,11.5,16.8,8.1,26.7c-1,2.9-0.7,4.3,1.8,6.2c13.6,10,13.7,29.5-0.1,39.2c-8.6,6-17.7,11.3-26.8,16.5
			c-3.1,1.8-6.9,2.1-10.4,3.2c-2.2,0.7-4.5,1.1-6.5,2.2c-8.5,4.9-17,9.9-25.3,15c-9.7,6.1-21.4,8.1-32.6,5.6
			c-7.5-1.6-15-3.2-22.5-4.5c-1.6-0.3-3.6,1.1-5.4,1.7c-0.1,0-0.2,0.3-0.3,0.4c-11.5,7-16.4,19.5-24.4,29.4
			c-4.9,6.1-10.8,8.9-18.6,8.9c-37-0.1-74-0.2-111,0.1c-10.9,0.1-18.8-3.3-22.7-13.9L0,459.1z M404.3,250.3
			c-8.9-14.4-17.3-28.1-25.8-41.8c-17.9-29.1-35.8-58.1-53.8-87.2c-3.4-5.4-3-9.7,1-12.3s8.3-1.1,11.8,4.6c2.9,4.7,5.8,9.4,8.7,14
			c27.3,44.4,54.7,88.7,82.1,133.1c1.1,1.7,3.4,4.6,4.1,4.3c3.8-1.5,7.4-3.5,10.5-6.1c0.7-0.6-0.7-4.5-1.9-6.4
			c-43-69.9-86.1-139.8-129.2-209.7c-4.9-8-4.8-7.8-13-3c-4.1,2.3-4.4,4.5-1.9,8.3c6.8,10.5,13.2,21.2,19.7,31.8
			c3,5,2.4,9.4-1.5,11.8s-8,1.1-11.2-3.9c-2.7-4.2-5.3-8.4-8-12.7c-0.5,0.4-1,0.8-1.5,1.2c-36.2,44.8-72.5,89.7-108.8,134.5
			c-2,2.4-1.3,3.9,0,6c13.9,22.5,27.8,45.1,41.7,67.6c1.7,2.8,3.1,3.8,6.7,3c36.1-8,72.2-15.8,108.3-23.6
			C362.8,259.4,383.1,254.9,404.3,250.3z M249.2,438.2l0.3-2.1c-2.6-1.2-5.2-3.2-7.9-3.6c-10.9-1.3-18.9-6.7-24.6-15.9
			C208,402.4,199,388.2,190,374c-1-1.5-2-3-3-4.6c-2.4,1.8-4.3,3.4-6.3,4.8c-5.9,4.2-10.3,4.3-13.2,0.5c-3.1-4-1.7-8.1,4.4-12.8
			c0.1-0.1,0.3-0.2,0.4-0.3c7.3-4.9,11.4-11.9,13.4-20.4c1.5-6.7,4.2-9.3,11-10.3c8.5-1.3,15.5,1.4,20.4,8.5c2.5,3.5,4.6,7.3,6.9,11
			c3.6,5.7,7,6.5,12.9,2.9c6.8-4.1,8.1-7.6,4.6-13.3c-6.4-10.7-12.9-21.4-19.6-31.9c-5.4-8.6-13.7-10.5-22.4-5.3
			c-5.7,3.4-11.3,7.1-17,10.4c-6.2,3.6-11.5,8.6-15.3,14.7c-10.2,15.6-20.5,31.1-30.9,46.6c-3.8,5.6-7.9,10.9-12.2,16.7
			c14.5,17.2,29.6,35.2,44.8,53.1c0.9,0.9,2.1,1.5,3.4,1.7c12.2,2.6,24.4,5.4,36.7,7.3c5.1,0.8,11,0.6,15.6-1.4
			C233.1,448.3,241,442.9,249.2,438.2z M84.3,407c-1.4,1.1-2.5,1.9-3.5,2.7C64.2,422.7,47.6,435.9,31,449
			c-5.2,4.1-12.3,7.4-14.9,12.8c-2.7,5.6-1,13.3-1,20.1s0.2,7,7,7c35.8,0,71.6-0.2,107.4,0.2c6.8,0.1,11.1-2.2,14.1-7.6
			c0.7-1.3,0.8-3.9-0.1-4.9C124,453.5,104.3,430.5,84.3,407z M245.6,409.5c-10.4-6.1-14.3-15.3-12.7-27.1
			c-7.2-2.5-12.7-6.7-16.2-13.4s-7.1-13.1-11-19.4c-1-1.7-3-2.9-4.6-4.3c-4.5,7-4.7,12.7,0.2,18.9c4.5,5.7,8,12.3,11.9,18.5
			c5.6,8.9,11.2,17.7,16.9,26.6c3.1,4.8,7.1,8.1,13.1,8.2C244,414.5,244.8,412.1,245.6,409.5z M257.2,397.2c0.8,0,1.7-0.1,2.5-0.4
			c9.5-5.8,19.2-11.3,28.4-17.5c3.9-2.6,3.9-8.3,1.3-12.1s-7.8-5.5-11.9-3.1c-8.8,5-17.5,10.2-25.9,15.8c-3.8,2.5-5.1,6.5-3.4,11
			C249.6,395,252.9,397,257.2,397.2z M100,402.3l53.9,63.3l7.6-6.4c-18.1-21.5-35.7-42.4-53.5-63.6L100,402.3z M266.3,431.4l1-1
			c0.8,0.1,1.7,0,2.5-0.3c9.9-6,20-11.8,29.6-18.3c3.4-2.3,2.9-8.1,0.3-11.4c-2.8-3.5-6.8-5.2-10.6-3c-9.5,5.2-18.7,10.9-27.7,16.9
			c-3.5,2.1-4.5,6.7-2.4,10.1c0,0,0,0.1,0.1,0.1C260.7,427.2,263.8,429.1,266.3,431.4L266.3,431.4z M100.7,289.4
			c-2.3,1.4-4,2.4-5.7,3.5c-3.6,2.3-4.1,5.5-2,9c5.7,9.3,11.5,18.7,17.3,28c2.2,3.6,5.3,4.3,9,2.1c1.8-1.1,3.5-2.2,5.5-3.5
			C116.7,315.3,108.8,302.6,100.7,289.4L100.7,289.4z M252.6,361.2c5.7-3.5,10.5-6.3,15.1-9.2c5.3-3.4,6.8-9,3.8-13.7
			s-8.6-5.7-14.3-2.2C259,349.7,258.8,350.8,252.6,361.2L252.6,361.2z M238.8,306.9l9.8,15.9c7-3.7,9.1-9.4,5.7-14.7
			C251,303.1,245,302.5,238.8,306.9L238.8,306.9z"/>
		<path class="st0" d="M512,182c-2.3,4.5-5.9,5.7-10.8,5.2c-18.4-1.9-36.8-3.5-55.2-5.3c-5.8-0.6-8.9-3.8-8.5-8.4
			c0.4-4.4,3.7-7,9.4-6.5c18.9,1.7,37.8,3.4,56.6,5.5c2.9,0.3,5.6,3,8.3,4.5L512,182z"/>
		<path class="st0" d="M378.7,70.7c-7.2,0.1-10.7-5.1-8.7-10.7c3-8.5,6.4-16.8,9.7-25.1c3.7-9.5,7.3-18.9,11-28.4
			c2.2-5.6,6-7.7,10.3-6s5.8,5.8,3.7,11.3c-6.8,17.5-13.5,35.1-20.6,52.5C383,67.2,380,69.3,378.7,70.7z"/>
		<path class="st0" d="M410.4,126.9c-2-1.7-5.3-3.1-6-5.3s0.5-5.5,1.5-8.1c0.5-1.2,2.3-1.8,3.5-2.6c11.9-7.3,23.8-14.7,35.7-22
			c1.1-0.7,2.3-1.3,3.5-1.8c3.8-1.5,7-0.4,9.1,3s1.5,6.9-1.6,9.4c-3.1,2.3-6.3,4.4-9.6,6.3c-9.9,6.1-19.8,12.2-29.8,18.3
			C415,124.9,413.2,125.6,410.4,126.9z"/>
	</g>
</g>
</svg>
