<svg xmlns="http://www.w3.org/2000/svg" viewBox="0 0 271.38 375.47"><defs><style>.cls-1{fill:#6200ff;}</style></defs><g id="Ebene_2" data-name="Ebene 2"><g id="Ebene_1-2" data-name="Ebene 1"><g id="Ebene_2-2" data-name="Ebene 2"><g id="Ebene_1-2-2" data-name="Ebene 1-2"><path class="cls-1" d="M25.69,375.45c-3.21-2.09-3.9-5.12-3.89-8.79q.15-51.5.05-103v-4.93H8.58c-8,0-10.36-3.55-7.28-11,6.69-16.1,13.45-32.18,20-48.33,1.65-4.05,4.18-5.82,8.61-5.81q105.74.1,211.47,0c4.42,0,7,1.75,8.61,5.8,6.68,16.37,13.56,32.66,20.34,49,2.67,6.45.15,10.3-6.84,10.31H159.41c-3.91,0-6.38-1.55-7.85-5.25a235.73,235.73,0,0,0-10-22.1V367c0,3.8-.87,6.71-4.52,8.34Zm8.37-116.71V363.27h95.5V231.46c-3.47,6.89-6.41,13.94-9.35,21-2.27,5.45-3.5,6.29-9.31,6.3H34.06ZM126.28,206a25.32,25.32,0,0,0-2.76-.31q-44.51,0-89-.06c-2.27,0-3.15,1-3.94,2.87C25.78,220.27,20.87,232,16,243.66c-.34.84-.53,1.73-.84,2.77a17.75,17.75,0,0,0,1.77.2q45.06,0,90.11.06c2.1,0,3-.85,3.7-2.64,4.82-11.73,9.73-23.41,14.6-35.12A26.94,26.94,0,0,0,126.28,206ZM256.44,246.6c-.65-1.78-1-2.92-1.48-4-4.63-11.15-9.37-22.24-13.85-33.45-1.09-2.72-2.5-3.54-5.39-3.52-28.81.11-57.63.06-86.44.06h-4.49c.66,1.73,1.06,2.84,1.51,3.93,4.69,11.25,9.5,22.45,14,33.77,1.06,2.66,2.45,3.31,5.11,3.3,29.06-.09,58.12-.06,87.18-.06Z"/><path class="cls-1" d="M157.68,375.45c-.74-.61-1.86-1.09-2.13-1.87-.7-2-1.76-4.27-1.25-6,.46-1.57,2.66-2.89,4.39-3.75,1.19-.59,2.87-.27,4.33-.27h74.57V279.9a23.24,23.24,0,0,1,.14-4,5.8,5.8,0,0,1,5.78-5.14c3-.19,5.48,2.21,5.87,5.4a25.78,25.78,0,0,1,.12,3.29q0,43.62.06,87.23c0,3.67-.69,6.7-3.89,8.79Z"/><path class="cls-1" d="M135.66,157.74H106.35c-4.68,0-6.57-1.21-7.43-5.83-1.43-7.66-4.88-13.15-11.3-18.36-19.26-15.63-28.19-36.63-27.39-61.5C61.66,27.61,104.07-6.65,147.9,1.1c40.8,7.21,67.8,43.37,62.57,84.5-2.64,20.8-12.67,37.79-29.56,50.31a17,17,0,0,0-7.14,10.71c-2.46,11.17-2.63,11.13-13.93,11.13Zm0-11.89c7.08,0,14.18-.23,21.25.1,3.73.17,5.44-.82,6-4.67.74-4.95,2.34-9.2,7.14-12.43,21.69-14.57,31.3-35.27,28.61-61.21-3.83-36.88-41.56-62.68-77.53-54C90.9,21,69.28,50,72.44,81.16,74.38,100.35,82.9,115.91,98.58,127c5.63,4,9.43,8.17,10.07,15,0,.36.27.7.29,1.06.13,2.37,1.46,2.88,3.66,2.85,7.69-.11,15.39,0,23.08,0Z"/><path class="cls-1" d="M135.51,181.8h-28.2c-1.56,0-3.63.14-4.57-.73-1.6-1.51-3.25-3.68-3.51-5.75-.35-2.74,1.68-4.72,4.59-5.23a24.38,24.38,0,0,1,4-.28h55.67c5.92,0,8.77,1.92,8.83,5.88s-2.92,6.15-9,6.15Z"/><path class="cls-1" d="M146.82,105.2H124.33c1.47,6.07,2.87,11.85,4.28,17.62.23,1,.48,1.89.68,2.85.8,4-.74,7-4,7.82-3.49.92-6.48-1-7.56-5.06-1.92-7.32-3.67-14.67-5.48-22a54.83,54.83,0,0,1-1.4-6.06c-.54-4.12,1.73-7.12,5.86-7.17q19.23-.23,38.48,0c3.82,0,6.3,3.22,5.41,7.1-2.22,9.74-4.66,19.44-7.24,29.1a5.63,5.63,0,0,1-6.75,4.22l-.37-.1c-3.19-.8-5-3.79-4.21-7.42,1.34-5.95,2.9-11.85,4.34-17.77C146.54,107.4,146.62,106.44,146.82,105.2Z"/></g></g></g></g></svg>