<?xml version="1.0" encoding="utf-8"?>
<!-- Generator: Adobe Illustrator 25.4.1, SVG Export Plug-In . SVG Version: 6.00 Build 0)  -->
<svg version="1.1" id="Ebene_1" xmlns="http://www.w3.org/2000/svg" xmlns:xlink="http://www.w3.org/1999/xlink" x="0px" y="0px"
	 viewBox="0 0 512 512" style="enable-background:new 0 0 512 512;" xml:space="preserve">
<style type="text/css">
	.st0{fill:#6200FF;}
</style>
<path class="st0" d="M270,0c9.9,2,20,3.3,29.7,6C364,23.7,410.6,79.1,417.1,145.4c4.9,51.8-11.4,96.3-48.3,132.8
	c-23.3,23.1-36,50.3-35.9,83.3c0,1.6,0.1,3.3,0.2,4.8c25,3,31.5,27.7,19.9,41.8c1.9,6.5,4.7,12.2,5,18c0.9,14.2-10.4,25.4-24.7,25.8
	c-9.1,0.3-9.1,0.3-11.4,8.8c-6.9,26.5-29.1,46.3-56.2,50.2c-0.9,0.2-1.9,0.6-2.7,1h-14c-8.7-3-18.1-4.8-26.1-9.1
	c-18.7-9.9-29.9-26.1-33.8-46.9c-0.6-3.2-1.8-4-4.9-4c-4,0-8.1,0-11.9-1c-13.5-3.6-21.5-17.4-17.9-30.8c0.7-2.7,1.9-5.3,3.4-7.6
	c0.6-1,1.3-1.9,2-2.8c-13-16.4-5.4-40.5,19-43.3c1.1-17.6-2.1-35.3-9.3-51.4c-6.1-13.9-15.1-25.8-26-36.3
	c-23.7-23-38.8-50.8-46-83.1c-20.2-90,42.8-181,134.1-193.8c4.1-0.6,8.2-1.2,12.3-1.9H270z M256,162h6c16.3,0,32.6,0,49,0
	c4.2,0,8,0.6,10.2,4.8c2.1,4,0.5,7.4-1.9,10.6c-3.5,4.4-4.5,10.3-2.6,15.6c2.4,7,7.5,11,14.8,11.6c6.3,0.7,12.5-2.4,15.7-7.9
	c3.9-6.3,3.7-12.7-0.5-18.8c-2.5-3.6-4.6-7.1-2.2-11.4s6.6-4.5,10.9-4.5c13.5,0.1,27,0,40.5,0c1.6,0,3.2-0.1,4.8-0.2
	C402,78.7,328.8,14.3,256,17.6V23c0,14,0.3,28-0.2,42c-0.1,3-2.3,7-4.8,8.4c-2.2,1.2-6.1-0.3-9.2-1c-1.2-0.2-2.2-1.5-3.3-2.2
	c-8.2-4.5-18.6-1.5-23.1,6.7c-4.1,7.4-2.1,16.7,4.6,21.8c5.6,4.3,13.3,4.5,19.7,0.7c2.4-1.4,4.9-3.1,7.5-3.4
	c5.3-0.7,8.7,3.6,8.7,10.3C256,124.7,256,143,256,162z M112.1,179c0.4,2.9,0.6,5.2,1,7.5c0.8,3.9,1.5,7.9,2.5,11.7
	c7.1,27.9,21.9,51.1,42.5,71c21.2,20.5,33.5,45.7,37.1,75c0.9,7.4,1,14.8,1.5,22.2H239v-5.8c0-23.8,0-47.6,0-71.5
	c0-4.5,0.1-8.8,4.7-11.3s7.9,0,11.4,2.4c5,3.6,11.6,4.1,17.1,1.2c8.4-4.2,11.8-14.4,7.7-22.8c-0.2-0.4-0.4-0.7-0.6-1.1
	c-5-8.5-15.8-11-24.3-5.3c-3.6,2.4-7,4.7-11.4,2.2c-4.4-2.4-4.5-6.5-4.5-10.8c0.1-19.7,0-39.3,0-59V179h-6c-16.3,0-32.7-0.1-49,0
	c-4.2,0-8.1-0.4-10.3-4.6s-0.4-7.6,2-11.1c5.3-7.8,4.1-17.1-2.7-22.9c-6.4-5.4-15.7-5.4-22.1,0c-6.9,5.8-8,15.1-2.7,23
	c2.4,3.5,4.2,6.9,2.1,11s-6.1,4.6-10.3,4.6C130.9,179,121.6,179,112.1,179z M366,179c2.8,16.4-1.7,29.5-15.6,38.1
	c-11.6,7.2-23.9,7.1-35.5-0.1c-13.9-8.7-18.1-21.8-15.4-37.7h-43.2V233c25.2-1.8,42.1,10.9,42.7,31.9c0.5,9.4-3,18.7-9.7,25.4
	c-9.1,9.4-20.5,11.7-33,9.4v66.9h58.8c0.8-9.3,0.9-18.4,2.4-27.2c4.7-28.7,18.1-52.9,39.1-73c16.2-15.2,28.5-34.2,35.7-55.2
	c3.5-10.2,5.6-20.9,8.5-32.1L366,179L366,179z M238.8,118.5c-17.2,2.2-29.5-2.4-37.2-14.3c-7.6-11.6-8.2-24-1.2-35.9
	c8.5-14.4,21.8-19.2,38.3-16.3V18.4C164,25.1,108.6,95,111.6,161.7h17.3c-2.8-15.9,1.6-28.9,15.2-37.5c11.9-7.6,24.5-7.5,36.3,0.1
	c13.6,8.7,17.7,21.7,15,37.4h43.4L238.8,118.5z M305.8,452.3h-99.6c0.7,21.7,25.2,42.5,49.9,42.5S305.4,473.8,305.8,452.3z M256,435
	h73.5c1.5,0.1,3,0,4.5-0.1c4.6-0.7,7.8-5,7.1-9.7c-0.5-3.6-3.3-6.4-6.9-7.1c-1.7-0.2-3.3-0.3-5-0.2H182.8c-1.7-0.1-3.3,0-5,0.2
	c-4.6,0.8-7.7,5.3-6.8,9.9c0.6,3.6,3.5,6.3,7.1,6.9c1.5,0.2,3,0.2,4.5,0.1H256z M256.1,383.9h-37.5c-12.8,0-25.7-0.1-38.5,0
	c-6.5,0-10.2,4.4-9.2,10.2c0.9,4.5,4.4,6.8,10.7,6.8c49.5,0,99,0,148.5,0c1.3,0.1,2.7,0,4-0.2c4.6-0.7,7.8-5.1,7-9.7
	c-0.1-0.9-0.4-1.8-0.9-2.6c-1.9-3.8-5.3-4.6-9.2-4.6C306.1,383.9,281.1,384,256.1,383.9L256.1,383.9z"/>
<path class="st0" d="M0,159c2.8-4.3,6.8-5.7,11.9-5.6c18.2,0.2,36.3,0,54.5,0.1c7.9,0,12.3,5.4,9.8,11.7c-1.5,3.7-4.5,5.3-8.2,5.4
	c-19.7,0.1-39.3,0.3-59-0.2c-3-0.1-5.8-3.4-8.8-5.3V159z"/>
<path class="st0" d="M512,165c-2.8,4.4-6.8,5.7-11.9,5.6c-17.7-0.2-35.3,0-53-0.1c-1.8,0.1-3.7-0.1-5.5-0.4c-4.5-1.1-7.3-5.5-6.2-10
	c0.7-3.1,3.1-5.5,6.2-6.2c1.8-0.3,3.6-0.5,5.5-0.4c17.7,0,35.3,0.1,53-0.1c5-0.1,9.1,1.3,11.9,5.6V165z"/>
<path class="st0" d="M42.9,29.9c1.5,0.5,3,1.1,4.4,1.9c16.3,9.3,32.5,18.7,48.8,28.1c5.8,3.3,7.4,8.2,4.5,12.8
	c-2.7,4.4-7.7,5.1-13.1,2c-16.4-9.5-32.8-18.9-49.2-28.4c-3.8-2.2-6.1-5.3-4.9-9.8C34.5,32.2,37.3,29.8,42.9,29.9z"/>
<path class="st0" d="M42.7,294.1c-5.3,0-8.1-2.2-9.3-6.4s0.8-7.5,4.4-9.6c11.3-6.6,22.8-13.1,34.1-19.7c5.3-3.1,10.6-6.2,16-9.2
	c5.2-2.9,10.1-1.9,12.7,2.4s1.2,9.2-3.9,12.2c-16.7,9.7-33.4,19.4-50.1,28.9C45.4,293.3,44.1,293.8,42.7,294.1z"/>
<path class="st0" d="M419.2,247.3c1.3,0.3,2.6,0.8,3.8,1.4c17.2,9.9,34.3,19.7,51.4,29.7c3.8,2.2,5.3,5.9,3.7,10.3
	c-2,5.2-7.4,7.1-12.8,4c-10-5.6-19.9-11.5-29.8-17.2c-7-4.1-14.2-8.1-21.1-12.3c-3.7-2.2-5.2-5.6-3.9-9.8
	C411.8,249.4,414.8,247.6,419.2,247.3z"/>
<path class="st0" d="M417.5,77.5c-2.1-2-5.6-3.7-6.4-6.3s0.6-6.1,1.6-9c0.4-1.1,2.3-1.8,3.6-2.5c15.8-9.2,31.6-18.4,47.5-27.5
	c1.5-1,3.2-1.7,5-2.1c4.1-0.9,8.2,1.5,9.4,5.5c1.6,4.7-0.4,8.1-4.4,10.5c-11.5,6.7-23,13.3-34.5,20c-4.9,2.8-9.8,5.7-14.7,8.4
	C422.7,75.5,420.7,76.2,417.5,77.5z"/>
</svg>
