<?xml version="1.0" encoding="utf-8"?>
<!-- Generator: Adobe Illustrator 25.4.1, SVG Export Plug-In . SVG Version: 6.00 Build 0)  -->
<svg version="1.1" id="Ebene_1" xmlns="http://www.w3.org/2000/svg" xmlns:xlink="http://www.w3.org/1999/xlink" x="0px" y="0px"
	 viewBox="0 0 384 384" style="enable-background:new 0 0 384 384;" xml:space="preserve">
<style type="text/css">
	.st0{fill:none;}
	.st1{fill:#6200FF;}
</style>
<rect class="st0" width="384" height="379.9"/>
<g id="Ebene_1-2">
	<path class="st1" d="M61.3,289.1V95.4c0.2-0.5,0.4-1.1,0.5-1.6c3-18.1,18.8-31.9,37.1-31.9c61.9-0.1,123.8-0.1,185.7,0
		c20.5,0,37.5,17,37.6,37.5c0.1,61.9,0.1,123.8,0,185.6c0,16.8-11.6,31.6-27.7,36.1c-1.9,0.5-3.9,1-5.8,1.5H95
		c-0.4-0.2-0.9-0.4-1.4-0.5c-16-3.1-26.3-12.5-31-28C62.1,292.5,61.7,290.8,61.3,289.1z M306.9,192.4c0-30.3,0-60.6,0-90.9
		c0-14.6-9.7-24.3-24.2-24.3c-60.6,0-121.3,0-181.9,0c-1.4,0-2.9,0-4.3,0.2c-12.1,1.9-19.9,11.2-19.9,23.6c0,60.6,0,121.2,0,181.9
		c0,15,9.6,24.6,24.7,24.6h180.9c15.1,0,24.7-9.6,24.7-24.6C307,252.7,307,222.5,306.9,192.4z"/>
	<path class="st1" d="M219.5,154h29.7c7.7,0,15.5,0,23.2,0c5,0,8.4,3.1,8.5,7.5s-3.4,7.7-8.5,7.7c-19.4,0-38.9,0-58.3,0
		c-1.3,0-2.3,0-3.1,1.5c-7.1,14.4-14.3,28.7-21.5,43c-0.1,0.3-0.2,0.6-0.5,1.4h82.6c1-0.1,2,0,3,0.1c4.1,0.8,6.8,4.9,5.9,9
		c-0.7,3.4-3.5,5.9-7,6.1c-0.8,0.1-1.7,0-2.5,0c-29,0-58.1,0-87.1,0c-2,0-3.1,0.5-4.1,2.4c-7.1,14.5-14.4,29-21.7,43.5
		c-2,4-5.4,5.8-9,4.9c-5.1-1.3-7.2-6.5-4.7-11.6c6-12.1,12.1-24.3,18.2-36.4c0.4-0.8,0.8-1.6,1.3-2.8h-3.1c-16.7,0-33.5,0-50.2,0
		c-5.9,0-9.8-5.5-7.5-10.6c1.5-3.3,4.3-4.7,7.8-4.7c16.4,0,32.8,0,49.2,0c3.3,0,6.6,0.1,9.9,0c0.9,0,1.6-0.5,2.2-1.2
		c7.4-14.5,14.6-29.1,21.9-43.7c0.1-0.3,0.1-0.7,0.1-1h-3c-26.8,0-53.5,0-80.3,0c-3.6,0-6.3-1.4-7.8-4.7c-1.3-2.9-0.7-5.7,1.4-8.1
		c1.7-2,4-2.6,6.6-2.6c18.9,0,37.7,0,56.6,0c10.7,0,21.4-0.1,32.1,0c1.9,0,2.8-0.6,3.6-2.3c7.1-14.4,14.3-28.7,21.5-43
		c0.4-0.8,0.8-1.7,1.4-2.4c2.4-3.4,7.2-4.2,10.6-1.8c2.7,1.9,3.9,5.4,2.8,8.6c-0.3,1-0.8,1.9-1.2,2.8c-5.8,11.7-11.7,23.4-17.5,35
		C220.5,151.8,220.2,152.7,219.5,154z"/>
</g>
</svg>
